# File exported by Houdini 19.0.383 (www.sidefx.com)
# 87 points
# 471 vertices
# 157 primitives
# Bounds: [-0.0502145439, -0.000642464613, -0.0497046225] to [0.0496210754, 0.20034866, 0.0515536256]
g 
v -0.0478773676 0.00298297964 -0.0203137938
v -0.0483642593 0.00366925681 -0.0104991412
v -0.0424356461 0.0867508128 -0.0482491329
v -0.0403455943 0.087846756 -0.0475163274
v 0.0495245345 0.0197456386 -0.0480622835
v -0.0496381372 0.0033898293 -0.0488509238
v -0.0490021855 0.00225618924 -0.000661809521
v -0.0477999039 0.0279441029 -0.0476310104
v -0.0482286178 0.0229697786 0.032208778
v -0.0484027192 0.0482323281 -0.0486140922
v -0.0485657603 0.0689019039 -0.0481155962
v -0.0482579619 0.0627253577 0.0488271564
v -0.0483847633 0.0754133463 0.0474213958
v -0.0494996421 0.0984279439 -0.0467446968
v -0.0498146042 0.120675743 -0.0488990881
v -0.0243353508 0.00159107114 -0.0489319973
v 0.0250649322 -0.000642464613 -0.000538017892
v -0.023845898 0.0052988166 -0.0493797846
v 0.0420828983 0.0754747838 -0.0487960614
v -0.0485130697 0.127191633 -0.0487785377
v 0.0141863758 0.010676845 -0.0492836311
v 0.0178076513 0.00215981132 -0.048112303
v -0.0492738672 0.00304048858 0.0231430605
v -0.0480746888 0.00133913732 0.0463028923
v -0.0479505472 0.0325079076 0.0487794243
v -0.0502145439 0.0483268835 0.0473587289
v -0.0406376831 0.00100267027 0.0175356884
v -0.0226165354 0.000872139703 0.0482836291
v -0.0228180941 0.010339533 0.0476164334
v -0.0406542234 0.0526295826 0.0498937741
v -0.0406551473 0.0734464601 0.0485056527
v 0.045452252 0.0893121287 0.0484775938
v -0.0495067015 0.0978655368 0.049058266
v 0.0263895039 0.000233960993 0.0256108027
v 0.0307103321 0.0103816455 0.0488016121
v -0.0483217947 0.149498358 -0.0486070216
v -0.0495780222 0.172250137 -0.0487722233
v -0.0486106537 0.197386295 0.00871823076
v -0.0471519828 0.198077872 -0.0493058041
v -0.0481915399 0.197190508 -0.0251967609
v 0.040447589 0.134033963 -0.0492288955
v -0.0243938267 0.198316351 -0.0478358231
v -0.0228362419 0.20034866 0.0482788086
v 0.00987886172 0.198530748 -0.0479796752
v 0.0424418747 0.199538693 0.0257538017
v -0.0487144552 0.124158375 0.0486159474
v -0.0475898236 0.148796931 0.0487309955
v -0.0482709184 0.17100583 0.0490622334
v -0.048538141 0.188763365 0.0483960249
v -0.0492620431 0.199338242 0.0477818847
v -0.0401457846 0.123892896 0.04924931
v 0.00169166096 0.193336606 0.0481072664
v 0.00157518894 0.198569506 0.0464814082
v 0.0488537811 0.0506256968 -0.0497046225
v 0.0496210754 0.00130605034 -0.0480199493
v 0.0475738458 0.0308456831 0.0488250591
v 0.0482522063 0.0715079457 -0.0475260429
v 0.0465690196 0.0759267956 -0.0404351316
v 0.0487428606 0.0791796893 -0.0484649688
v 0.0485565774 0.110340096 -0.0489556156
v 0.0271567069 0.000747480604 0.0476137549
v 0.0491514802 0.00118010992 0.0490617342
v 0.048321221 0.0657219887 0.0491299517
v 0.0477031767 0.00124343613 0.00136882043
v 0.04850398 0.0135604497 0.0495442338
v 0.0483433679 0.0513199903 0.0487735495
v 0.0486804135 0.093655616 0.0469700694
v 0.0487016626 0.159750283 -0.0485149398
v 0.0481659882 0.198498726 -0.0116964066
v 0.0482871272 0.128736734 -0.0492673554
v 0.0494141728 0.197716042 -0.0461804122
v 0.0461730547 0.195195705 0.0264887623
v 0.0468650162 0.132447839 0.0480839945
v 0.0486041829 0.153938428 0.0485667065
v 0.0494555011 0.122149132 0.0463814065
v 0.0482883528 0.18613188 0.0340301581
v 0.0482108817 0.172489628 0.0470412821
v 0.0492191389 0.197303936 0.0477688946
v 0.0495008975 0.199768677 0.0315349288
v -0.0489011668 0.00871679466 0.0259668678
v -0.000327903719 7.08888911e-05 0.0148028061
v -0.000330239593 0.158484966 0.0515536256
v -0.000581864326 0.176164985 -0.0484991297
v -0.0488370135 0.112178557 0.0452757031
v 0.0482137315 0.111153804 0.000828245771
v -0.000480190385 0.000270764518 -0.00416244613
v -0.000330018636 8.3938321e-05 0.0147978589
vt 0 0 0
vt 0.707694888 0.130312979 0
vt 0.729723454 0.100205213 0
vt 0.765426576 0.10710717 0
vt 0.482394248 0.389597416 0
vt 0.442077905 0.333767295 0
vt 0.465021282 0.31815809 0
vt 0.00513300346 0.270616174 0
vt 0.0286088344 0.174645439 0
vt 0.0538987853 0.26937741 0
vt 0.354629993 0.244787842 0
vt 0.341710329 0.26392445 0
vt 0.292716414 0.264671355 0
vt 0.38982743 0.415404409 0
vt 0.434616655 0.436957777 0
vt 0.328852862 0.531583846 0
vt 0.112036034 0.605323732 0
vt 0.0812289268 0.586687922 0
vt 0.114593416 0.583535612 0
vt 0.0718603507 0.631667376 0
vt 0.0305353701 0.576087236 0
vt 0.522516251 0.440528661 0
vt 0.536068559 0.430643052 0
vt 0.609967589 0.539454103 0
vt 0.696344614 0.464029133 0
vt 0.65823704 0.494037092 0
vt 0.505732954 0.479598492 0
vt 0.547421753 0.614347756 0
vt 0.366979152 0.697714329 0
vt 0.589757442 0.534117758 0
vt 0.491121233 0.698079228 0
vt 0.460611165 0.70424813 0
vt 0.412956744 0.716781139 0
vt 0.317108572 0.668423831 0
vt 0.29670909 0.6511271 0
vt 0.419961601 0.269430816 0
vt 0.338097394 0.261157483 0
vt 0.00617383141 0.489983261 0
vt 0.0735936537 0.385760516 0
vt 0.0339320451 0.509647369 0
vt 0.300701648 0.391727626 0
vt 0.228179976 0.618769526 0
vt 0.317378134 0.376742154 0
vt 0.212811232 0.616642058 0
vt 0.15536648 0.586033344 0
vt 0.0203840509 0.523124397 0
vt 0.00086518738 0.50740689 0
vt 0.0241785981 0.504360199 0
vt 0.301192015 0.368296415 0
vt 0.00583291706 0.184281856 0
vt 0.502374291 0.289798379 0
vt 0.606380463 0.369140536 0
vt 0.524356902 0.437797487 0
vt 0.263089508 0.895662308 0
vt 0.198792249 0.897088885 0
vt 0.260276139 0.835081637 0
vt 0.0674454719 0.6516096 0
vt 0.0664930642 0.638772786 0
vt 0.168449193 0.639261723 0
vt 0.262860268 0.743642449 0
vt 0.260744661 0.638200939 0
vt 0.0111670792 0.761008918 0
vt 0.0502438173 0.633176982 0
vt 0.00670242868 0.634413242 0
vt 0.108713217 0.896261275 0
vt 0.0046614781 0.825483322 0
vt 0.0047727162 0.895930767 0
vt 0.340445638 0.00755513739 0
vt 0.401057065 0.00835268106 0
vt 0.470022887 0.00867397618 0
vt 0.471060216 0.141349673 0
vt 0.53674376 0.0215592682 0
vt 0.527893007 0.172695026 0
vt 0.519830644 0.277003646 0
vt 0.533316851 0.0810109749 0
vt 0.849342465 0.699981511 0
vt 0.922411203 0.805050254 0
vt 0.790040076 0.702419579 0
vt 0.897813141 0.700737178 0
vt 0.863098741 0.961386621 0
vt 0.926889479 0.894148529 0
vt 0.933185816 0.957603693 0
vt 0.800731301 0.963901758 0
vt 0.926702082 0.702341378 0
vt 0.740014553 0.966801405 0
vt 0.722243428 0.96679455 0
vt 0.692973971 0.716166556 0
vt 0.594769359 0.71206373 0
vt 0.655260205 0.706400692 0
vt 0.663278818 0.961669505 0
vt 0.885247171 0.0815146193 0
vt 0.905245781 0.0673520938 0
vt 0.969611585 0.194105983 0
vt 0.710861087 0.637275159 0
vt 0.739584506 0.626219869 0
vt 0.737699687 0.684273958 0
vt 0.705410302 0.684535444 0
vt 0.954793572 0.264112055 0
vt 0.992513001 0.236212134 0
vt 0.738952339 0.42579633 0
vt 0.827250898 0.352210641 0
vt 0.822157025 0.366502643 0
vt 0.764905691 0.414092839 0
vt 0.549489379 0.255002052 0
vt 0.612858117 0.23018223 0
vt 0.598646402 0.213267162 0
vt 0.651078224 0.16963096 0
vt 0.697354317 0.131819621 0
vt 0.717500985 0.143205136 0
vt 0.620003223 0.191554397 0
vt 0.716036499 0.683924794 0
vt 0.724110305 0.706567466 0
vt 0.695765018 0.111433312 0
vt 0.800641179 0.0606795363 0
vt 0.867133856 0.0146282176 0
vt 0.906635463 0.0675991029 0
vt 0.880805969 0.320704997 0
vt 0.910669982 0.297032952 0
vt 0.76218462 0.0768225789 0
vt 0.402923077 0.787013888 0
vt 0.403748721 0.849601209 0
vt 0.394924939 0.727235973 0
vt 0.0748802572 0.00698720617 0
vt 0.0135832243 0.0724160224 0
vt 0.18483378 0.00700042769 0
vt 0.202140436 0.246639132 0
vt 0.00338466023 0.0725418553 0
vt 0.211365581 0.264205635 0
vt 0.130539566 0.00655858871 0
vt 0.137059242 0.266941547 0
vt 0.183533028 0.295512468 0
vt 0.258231521 0.335398674 0
vt 0.0746023282 0.534716785 0
vt 0.119731687 0.562718034 0
vt 0.13954173 0.269921154 0
vt 0.301414728 0.370619267 0
vt 0.19370532 0.262172818 0
vt 0.26235199 0.00335318455 0
vt 0.321709603 0.00342964684 0
vt 0.00925648026 0.00308371172 0
vt 0.00359305297 0.0680481866 0
vt 0.476775587 0.714313805 0
vt 0.520111203 0.715852559 0
vt 0.454178244 0.760083377 0
vt 0.530990243 0.971624851 0
vt 0.559878528 0.708261788 0
vt 0.58537364 0.968195796 0
vt 0.417449564 0.7789222 0
vt 0.477499306 0.970666885 0
vt 0.408302337 0.901594341 0
vt 0.412657887 0.976900756 0
vt 0.991568089 0.414515615 0
vt 0.994637907 0.483157635 0
vt 0.916091323 0.421873182 0
vt 0.863623798 0.419944316 0
vt 0.738353074 0.424466997 0
vt 0.824986219 0.550672591 0
vt 0.73340416 0.493294477 0
vt 0.867465794 0.617275 0
vt 0.993645251 0.595862567 0
vt 0.994881272 0.680155158 0
vt 0.863774836 0.677678823 0
vt 0.126910523 0.584664524 0
vt 0.9844172 0.170573533 0
vt 0.0294157956 0.520803571 0
vt 0.125 0.5703125 0
vt 0.00355775328 0.564205229 0
vt 0.798050761 0.622579277 0
vn -0.704024613 -0.521811426 0.293844819
vn 0 0 0
vn 0 0 0
vn 0 0 0
vn 0.182671323 -0.00145254016 -0.934189975
vn -0.664681613 -0.522229195 -0.536996722
vn -0.764190733 -0.747411251 -0.107395731
vn -0.869324505 -0.0649863258 -0.522382557
vn -0.99732244 -0.0301251877 -0.0159471706
vn -0.625127375 -0.0257998407 -0.783865035
vn -0.719433129 0.275136948 -0.623840153
vn -1.00193357 -0.00245913095 0.139178514
vn -1.03545356 -0.125228375 -0.0237000491
vn -0.568888783 -0.153696373 -0.772972584
vn -0.984463751 0.0477881432 0.00219293218
vn -0.0147684216 -1.01050806 -0.119390152
vn -0.00448385812 -1.03406608 0.0747702569
vn 0.279710233 -0.0935094878 -0.958731294
vn 0.130334541 -0.0134509047 -0.93158114
vn -0.224201202 0.0167731568 -0.918380022
vn 0.035123039 0.0771391913 -0.959634423
vn 0.119853847 -0.340903312 -0.758387208
vn -0.970110714 -0.242635161 0.00363204535
vn -0.646314204 -0.726381242 0.292350471
vn -0.691803515 -0.0209821463 0.693046987
vn -1.00172508 0.0902512074 0.0267250109
vn -0.0455191284 -0.998888791 -0.0122194961
vn 0.208056509 -0.696478367 0.662094533
vn -0.100230604 0.0631066039 0.938922226
vn -0.232906833 -0.206402689 0.976177335
vn 0.0509037599 0.0406892188 1.00019622
vn 0.11386238 0.0331351198 0.954029977
vn -0.468328774 -0.0594634265 0.872099817
vn 0.0273691602 -0.999605775 0.00627630064
vn 0.0178792235 0.0855974779 0.943038285
vn -0.966857672 -0.00554932235 -0.0211093035
vn -0.765338421 0.32536 -0.852057397
vn -0.87688607 0.165071264 -0.0702796057
vn -0.860152364 0.675266862 -0.619493663
vn -0.955067992 0.119872399 0.0588541329
vn 0.0296853967 -0.00196870696 -0.996839404
vn 0.0684930384 0.776027679 -0.644942999
vn 0.0691551566 0.987858653 0.123469763
vn -0.0797723234 0.441431195 -0.633313417
vn 0.177735597 0.937644005 0.00598321995
vn -0.976439536 -0.0119488509 0.0684457868
vn -0.490205288 0.132791579 0.854523301
vn -0.964096665 -0.0884325057 0.0355672538
vn -0.822973609 -0.321018159 0.289206654
vn -0.569122493 0.561023951 0.500145793
vn -0.0691698119 -0.00739927916 0.997613668
vn 0.0731868297 -0.145315543 0.854543746
vn 0.212275341 1.0503453 -0.104105085
vn 0.150022462 0.0232478045 -0.943415701
vn 0.233662575 -0.72223109 -0.666981936
vn 0.950464189 -0.0499578863 0.170904309
vn 0.650676906 0.173835903 -0.727239609
vn 0.894350708 0.0162726473 -0.192895621
vn 0.653547347 -0.48271212 -0.576800287
vn 0.364881396 0.0177970286 -0.890684724
vn -0.173512071 -0.788374782 0.474088937
vn 0.36145249 -0.653162777 0.678347051
vn 0.00871667266 -0.101344675 0.969965577
vn 0.622307956 -0.651411712 0.107621178
vn 0.974679172 -0.188647196 0.174640179
vn 0.749563396 -0.0106333466 0.650776446
vn 0.960947514 -0.2855739 0.0630134568
vn 0.0585949011 -0.0473681614 -1.01554048
vn 0.123302214 0.991802096 0.128431946
vn 0.385872245 -0.246706501 -1.00514317
vn 0.306589216 0.338848144 -0.78688097
vn 0.967573702 0.444082111 0.280780792
vn 0.107681885 -0.0373019353 1.05821455
vn 0.626383781 0.0427352153 0.798278213
vn 0.70674932 0.301000267 0.583973289
vn 0.983815551 -0.0855597258 -0.184543893
vn 0.482189149 0.0611841939 0.809568882
vn 0.770945132 -0.244616881 0.521498024
vn 0.531170905 0.701833665 -0.521993697
vn -0.965822816 0.127112374 0.225894943
vn 0.0902739093 -0.985574901 0.0746805817
vn 0.00793447718 0.0234356821 0.99943459
vn -0.00940542389 0.0453091078 -0.980799139
vn -0.852588177 0.200371832 0.332229316
vn 0.989433408 -0.0333816744 -0.0285372492
vn -0.000311950251 -0.997876942 -0.0330111459
vn 0.0902651101 -0.985576272 0.0746684819
g 
l 3/1/3 4/1/4
l 2/1/2 1/1/1
f 31/2/31 12/3/12 30/4/30
f 43/5/43 50/6/50 49/7/49
f 55/8/55 21/9/21 5/10/5
f 41/11/41 70/12/70 60/13/60
f 60/14/60 70/15/70 85/16/85
f 79/17/79 76/18/76 72/19/72
f 78/20/78 76/18/76 79/17/79
f 76/18/76 78/20/78 77/21/77
f 53/22/53 52/23/52 78/24/78
f 74/25/74 77/26/77 52/23/52
f 52/23/52 77/26/77 78/24/78
f 68/27/68 85/16/85 70/15/70
f 68/27/68 69/28/69 74/29/74
f 68/27/68 71/30/71 69/28/69
f 74/29/74 69/28/69 72/31/72
f 72/31/72 76/32/76 74/29/74
f 76/32/76 77/33/77 74/29/74
f 74/29/74 73/34/73 75/35/75
f 74/29/74 75/35/75 85/16/85
f 41/11/41 68/36/68 70/37/70
f 62/38/62 64/39/64 65/40/65
f 58/41/58 60/14/60 85/16/85
f 85/16/85 75/35/75 67/42/67
f 58/41/58 59/43/59 60/14/60
f 67/42/67 32/44/32 63/45/63
f 67/42/67 63/45/63 85/16/85
f 19/46/19 58/47/58 57/48/57
f 58/41/58 19/49/19 59/43/59
f 55/8/55 22/50/22 21/9/21
f 48/51/48 82/52/82 43/5/43
f 43/5/43 82/52/82 52/23/52
f 53/53/53 43/5/43 52/23/52
f 48/51/48 43/5/43 49/7/49
f 39/54/39 40/55/40 42/56/42
f 45/57/45 72/58/72 69/59/69
f 44/60/44 69/59/69 71/61/71
f 45/57/45 53/62/53 79/63/79
f 53/62/53 78/64/78 79/63/79
f 42/56/42 38/65/38 43/66/43
f 42/56/42 40/55/40 38/65/38
f 43/66/43 38/65/38 50/67/50
f 20/68/20 36/69/36 41/11/41
f 36/69/36 37/70/37 83/71/83
f 37/70/37 39/72/39 83/71/83
f 36/69/36 83/71/83 41/11/41
f 44/73/44 68/36/68 83/71/83
f 68/36/68 44/73/44 71/74/71
f 39/72/39 42/75/42 83/71/83
f 83/71/83 42/75/42 44/73/44
f 48/76/48 38/77/38 47/78/47
f 48/76/48 49/79/49 38/77/38
f 37/80/37 40/81/40 39/82/39
f 36/83/36 38/77/38 40/81/40
f 49/79/49 50/84/50 38/77/38
f 37/80/37 36/83/36 40/81/40
f 36/83/36 20/85/20 47/78/47
f 47/78/47 15/86/15 84/87/84
f 13/88/13 33/89/33 84/87/84
f 15/86/15 14/90/14 84/87/84
f 29/91/29 28/92/28 35/93/35
f 35/94/35 61/95/61 62/96/62
f 35/94/35 62/96/62 65/97/65
f 56/98/56 35/93/35 65/99/65
f 73/100/73 82/52/82 32/101/32
f 73/100/73 32/101/32 67/102/67
f 73/100/73 67/102/67 75/103/75
f 82/52/82 47/104/47 51/105/51
f 51/105/51 47/104/47 46/106/46
f 33/107/33 13/108/13 31/109/31
f 47/104/47 82/52/82 48/51/48
f 51/105/51 33/107/33 32/101/32
f 51/105/51 84/110/84 33/107/33
f 84/87/84 51/111/51 46/112/46
f 13/113/13 12/3/12 31/2/31
f 25/114/25 29/91/29 30/4/30
f 29/91/29 24/115/24 28/116/28
f 63/117/63 56/98/56 66/118/66
f 30/4/30 63/117/63 31/109/31
f 30/4/30 26/119/26 25/114/25
f 30/4/30 12/3/12 26/119/26
f 29/91/29 25/114/25 24/115/24
f 23/120/23 7/121/7 24/122/24
f 8/123/8 21/9/21 18/124/18
f 11/125/11 20/68/20 19/126/19
f 18/124/18 22/50/22 16/127/16
f 8/123/8 5/10/5 21/9/21
f 20/68/20 41/11/41 19/126/19
f 19/126/19 60/13/60 59/128/59
f 10/129/10 54/130/54 5/10/5
f 10/129/10 11/125/11 54/130/54
f 5/131/5 54/132/54 56/133/56
f 54/132/54 58/41/58 63/45/63
f 64/39/64 56/133/56 65/40/65
f 66/134/66 54/132/54 63/45/63
f 5/131/5 64/39/64 55/135/55
f 58/41/58 54/132/54 57/136/57
f 19/126/19 57/137/57 54/130/54
f 20/68/20 11/125/11 14/138/14
f 5/10/5 8/123/8 10/129/10
f 20/68/20 14/138/14 15/139/15
f 6/140/6 8/123/8 18/124/18
f 6/140/6 18/124/18 16/141/16
f 25/142/25 26/143/26 9/144/9
f 10/145/10 26/143/26 12/146/12
f 10/145/10 12/146/12 11/147/11
f 80/148/80 24/122/24 9/144/9
f 8/149/8 1/150/1 9/144/9
f 6/151/6 1/150/1 8/149/8
f 9/144/9 1/150/1 23/120/23
f 80/148/80 23/120/23 24/122/24
f 1/150/1 7/121/7 23/120/23
f 6/152/6 16/153/16 1/154/1
f 16/153/16 7/155/7 1/154/1
f 24/156/24 87/157/87 28/158/28
f 7/155/7 16/153/16 17/159/17 87/157/87
f 17/159/17 16/153/16 22/160/22
f 22/160/22 55/161/55 17/159/17
f 17/159/17 64/162/64 62/96/62
f 17/159/17 55/161/55 64/162/64
f 17/159/17 62/96/62 61/95/61
f 17/159/17 61/95/61 28/158/28
f 24/122/24 25/142/25 9/144/9
f 45/163/45 79/17/79 72/19/72
f 52/23/52 82/52/82 74/25/74
f 53/62/53 45/57/45 43/66/43
f 43/66/43 45/57/45 69/59/69
f 41/11/41 83/71/83 68/36/68
f 35/93/35 28/92/28 61/164/61
f 56/98/56 29/91/29 35/93/35
f 32/101/32 31/109/31 63/117/63
f 51/105/51 32/101/32 82/52/82
f 74/25/74 82/52/82 73/100/73
f 31/109/31 32/101/32 33/107/33
f 30/4/30 29/91/29 63/117/63
f 63/117/63 29/91/29 56/98/56
f 19/126/19 41/11/41 60/13/60
f 54/130/54 11/125/11 19/126/19
f 18/124/18 21/9/21 22/50/22
f 15/86/15 47/78/47 20/85/20
f 74/29/74 85/16/85 68/27/68
f 85/16/85 63/45/63 58/41/58
f 43/66/43 69/59/69 44/60/44
f 47/78/47 38/77/38 36/83/36
f 46/112/46 47/78/47 84/87/84
f 84/87/84 14/90/14 13/88/13
f 5/131/5 56/133/56 64/39/64
f 56/133/56 54/132/54 66/134/66
f 14/90/14 11/147/11 12/146/12 13/88/13
f 9/144/9 10/145/10 8/149/8
f 9/144/9 26/143/26 10/145/10
f 7/155/7 87/157/87 24/156/24
f 87/157/87 17/159/17 28/158/28
f 81/165/81 27/166/27 86/167/86
f 42/56/42 43/66/43 44/60/44
f 34/168/34 87/157/87 17/159/17
